# AST/ASF file generated using VICON BodyLanguage
# -----------------------------------------------
:version 1.10
:name VICON
:units
  mass 1.0
  length 0.45
  angle deg
:documentation
   .ast/.asf automatically generated from VICON data using
   VICON BodyBuilder and BodyLanguage model FoxedUp or BRILLIANT.MOD
:root
   order TX TY TZ RX RY RZ
   axis XYZ
   position 0 0 0  
   orientation 0 0 0 
:bonedata
  begin
     id 1 
     name lhipjoint
     direction 0.660183 -0.676772 0.325788 
     length 2.75133 
     axis 0 0 0  XYZ
  end
  begin
     id 2 
     name lfemur
     direction 0.34202 -0.939693 0  
     length 7.70317  
     axis 0 0 20  XYZ
    dof rx ry rz
    limits (-160.0 20.0)
           (-70.0 70.0)
           (-60.0 70.0)
  end
  begin
     id 3 
     name ltibia
     direction 0.342105 -0.939662 0   
     length 7.18701   
     axis 0 0 20   XYZ
    dof rx
    limits (-10.0 170.0)
  end
  begin
     id 4 
     name lfoot
     direction 0.14163 -0.389126 0.910232   
     length 2.41719   
     axis -90 7.62852e-016 20   XYZ
    dof rx rz
    limits (-45.0 90.0)
           (-70.0 20.0)
  end
  begin
     id 5 
     name ltoes
     direction 1.53533e-011 -4.21926e-011 1   
     length 1.18611   
     axis -90 7.62852e-016 20   XYZ
    dof rx
    limits (-90.0 20.0)
  end
  begin
     id 6 
     name rhipjoint
     direction -0.6658 -0.67229 0.323631   
     length 2.76968  
     axis 0 0 0  XYZ 
  end
  begin
     id 7 
     name rfemur
     direction -0.34202 -0.939693 0   
     length 7.92547   
     axis 0 0 -20   XYZ
    dof rx ry rz
    limits (-160.0 20.0)
           (-70.0 70.0)
           (-70.0 60.0)
  end
  begin
     id 8 
     name rtibia
     direction -0.342022 -0.939692 0   
     length 7.22641   
     axis 0 0 -20   XYZ
    dof rx
    limits (-10.0 170.0)
 end
 begin
     id 9 
     name rfoot
     direction -0.105675 -0.29034 0.951071   
     length 2.48149  
     axis -90 -7.62852e-016 -20   XYZ
    dof rx rz
    limits (-45.0 90.0)
           (-20.0 70.0)
  end
  begin
     id 10 
     name rtoes
     direction -1.5349e-011 -4.21859e-011 1   
     length 1.23343   
     axis -90 -7.62852e-016 -20   XYZ
    dof rx
    limits (-90.0 20.0)
  end
  begin
     id 11 
     name lowerback
     direction 0.0104173 0.993624 -0.112266   
     length 2.00527   
     axis 0 0 0   XYZ
    dof rx ry rz
    limits (-20.0 45.0)
           (-30.0 30.0)
           (-30.0 30.0)
  end
  begin
     id 12 
     name upperback
     direction 0.00733149 0.999856 -0.0152913   
     length 2.01385   
     axis 0 0 0   XYZ
    dof rx ry rz
    limits (-20.0 45.0)
           (-30.0 30.0)
           (-30.0 30.0)
  end
  begin
     id 13 
     name thorax
     direction 0.0026304 0.999318 0.036841   
     length 2.03734   
     axis 0 0 0   XYZ
    dof rx ry rz
    limits (-20.0 45.0)
           (-30.0 30.0)
           (-30.0 30.0)
  end
  begin
     id 14 
     name lowerneck
     direction 0.0293154 0.998757 0.0403082   
     length 1.65303   
     axis 0 0 0   XYZ
    dof rx ry rz
    limits (-20.0 45.0)
           (-30.0 30.0)
           (-30.0 30.0)
  end
  begin
     id 15 
     name upperneck
     direction -0.0376619 0.998184 -0.0470083   
     length 1.60926   
     axis 0 0 0   XYZ
    dof rx ry rz
    limits (-20.0 45.0)
           (-30.0 30.0)
           (-30.0 30.0)
  end
  begin
     id 16
     name head
     direction -0.0170133 0.999635 -0.0209778  
     length 1.73625  
     axis 0 0 0   XYZ
    dof rx ry rz
    limits (-20.0 45.0)
           (-30.0 30.0)
           (-30.0 30.0)
  end
  begin
     id 17 
     name lclavicle
     direction 0.919857 0.39181 -0.0186333  
     length 3.75313  
     axis 0 0 0   XYZ
    dof ry rz
    limits (-20.0 10.0)
           (0.0 20.0)
  end
  begin
     id 18 
     name lhumerus
     direction 1 -4.48988e-011 1.44029e-027   
     length 5.49313   
     axis 180 -30 -90   XYZ
    dof rx ry rz
    limits (-60.0 90.0)
           (-90.0 90.0)
           (-90.0 90.0)
  end
  begin
     id 19
     name lradius
     direction 1 -4.48924e-011 7.46281e-027   
     length 3.29037   
     axis 180 -30 -90   XYZ
    dof rx
    limits (-10.0 170.0)
  end
  begin
     id 20
     name lwrist
     direction 1 -4.48955e-011 2.19879e-026   
     length 1.64519   
     axis -1.34358e-014 90 90   XYZ
    dof ry
    limits (-180.0 0.0)
 end
  begin
     id 21 
     name lhand
     direction 1 -4.48978e-011 4.39747e-026   
     length 0.729656   
     axis -2.80598e-014 90 90   XYZ
    dof rx rz
    limits (-90.0 90.0)
           (-45.0 45.0)
  end
  begin
     id 22 
     name lfingers
     direction 1 -4.49071e-011 8.79411e-026   
     length 0.588268   
     axis -5.61193e-014 90 90   XYZ
    dof rx
    limits (0.0 90.0)
  end
  begin
     id 23
     name lthumb
     direction 0.707107 -6.34817e-011 0.707107   
     length 0.844638   
     axis -90 45 -9.86923e-015   XYZ
    dof rx rz
    limits (-45.0 45.0)
           (-45.0 45.0)
  end
  begin
     id 24 
     name rclavicle
     direction -0.919898 0.388279 0.0550233   
     length 3.7171  
     axis 0 0 0   XYZ 
    dof ry rz
    limits (-10.0 20.0)
           (-20.0 0.0)
  end
  begin
     id 25 
     name rhumerus
     direction -1 -4.48968e-011 9.98372e-028  
     length 5.23684   
     axis 180 30 90   XYZ
    dof rx ry rz
    limits (-90.0 60.0)
           (-90.0 90.0)
           (-90.0 90.0)
  end
  begin
     id 26 
     name rradius
     direction -1 -4.48956e-011 1.01023e-026   
     length 3.38251   
     axis 180 30 90   XYZ
    dof rx
    limits (-10.0 170.0)
  end
  begin
     id 27 
     name rwrist
     direction -1 -4.4892e-011 2.19886e-026   
     length 1.69126   
     axis -1.34358e-014 -90 -90   XYZ
    dof ry
    limits (-180.0 0.0)
  end
  begin
     id 28
     name rhand
     direction -1 -4.49024e-011 4.39727e-026   
     length 0.691454   
     axis -2.80598e-014 -90 -90   XYZ
    dof rx rz
    limits (-90.0 90.0)
           (-45.0 45.0)
  end
  begin
     id 29
     name rfingers
     direction -1 -4.49097e-011 8.79388e-026   
     length 0.557468   
     axis -5.61193e-014 -90 -90   XYZ
    dof rx
    limits (0.0 90.0)
  end
  begin
     id 30
     name rthumb
     direction -0.707107 -6.34938e-011 0.707107   
     length 0.800416   
     axis -90 -45 9.86923e-015   XYZ
    dof rx rz
    limits (-45.0 45.0)
           (-45.0 45.0)
  end
:hierarchy
  begin
    root lhipjoint rhipjoint lowerback
    lhipjoint lfemur
    lfemur ltibia
    ltibia lfoot
    lfoot ltoes
    rhipjoint rfemur
    rfemur rtibia
    rtibia rfoot
    rfoot rtoes
    lowerback upperback
    upperback thorax
    thorax lowerneck lclavicle rclavicle
    lowerneck upperneck
    upperneck head
    lclavicle lhumerus
    lhumerus lradius
    lradius lwrist
    lwrist lhand lthumb
    lhand lfingers
    rclavicle rhumerus
    rhumerus rradius
    rradius rwrist
    rwrist rhand rthumb
    rhand rfingers
  end

#!OML:ASF H:\BabyWalks\Project 1\Capture day 1\Session 1\baby.ASF
:FULLY-SPECIFIED
:DEGREES
261
root -16.2684 17.3512 -22.006 -30.7633 86.0817 -37.3617
lowerback 18.6209 2.83027 -4.70249
upperback 6.63634 3.20511 -1.65771
thorax -3.40539 1.73112 0.213768
lowerneck -0.51442 -1.75554 8.03741
upperneck -9.26321 -2.03328 -0.178446
head -2.99621 -1.21283 -1.40606
rclavicle -6.75868e-015 4.92986e-014
rhumerus -54.58 18.3783 -93.535
rradius 54.2615
rwrist -7.05216
rhand -21.9268 -18.1944
rfingers 7.12502
rthumb 4.47946 -48.127
lclavicle -6.75868e-015 4.92986e-014
lhumerus -48.2994 -21.7969 82.4266
lradius 44.8515
lwrist -5.89864
lhand 8.55963 5.77004
lfingers 7.12502
lthumb 33.7589 32.607
rfemur -9.92298 6.44472 16.7478
rtibia 56.8447
rfoot -5.76366 21.1961
rtoes -17.5473
lfemur -26.5187 2.83497 -16.882
ltibia 45.0195
lfoot -27.6687 -11.7655
ltoes 8.03712
262
root -16.1175 17.3389 -22.0072 -28.7763 86.1893 -35.4174
lowerback 18.6285 2.70929 -4.91173
upperback 6.64443 3.00718 -1.82943
thorax -3.39157 1.63534 0.192155
lowerneck -0.429495 -1.70559 7.96459
upperneck -9.33978 -1.94023 0.01854
head -3.02898 -1.17117 -1.33016
rclavicle 2.14687e-014 -2.62396e-014
rhumerus -54.63 18.0412 -93.7152
rradius 53.9577
rwrist -7.03352
rhand -21.0944 -18.106
rfingers 7.12502
rthumb 5.28319 -48.0202
lclavicle 2.14687e-014 -2.62396e-014
lhumerus -46.763 -21.5485 81.4386
lradius 44.8894
lwrist -6.62459
lhand 8.19103 5.6838
lfingers 7.12502
lthumb 33.4086 32.5969
rfemur -11.4133 6.18399 16.3404
rtibia 58.5594
rfoot -6.7029 21.773
rtoes -17.9804
lfemur -25.9988 3.02197 -17.0955
ltibia 45.0791
lfoot -28.2198 -11.9699
ltoes 8.25695
263
root -15.967 17.3308 -22.0074 -27.774 86.3362 -34.4571
lowerback 18.6635 2.55826 -5.057
upperback 6.64034 2.77942 -1.97116
thorax -3.40274 1.52528 0.17117
lowerneck -0.368755 -1.65984 7.88327
upperneck -9.37045 -1.85913 0.19371
head -3.04252 -1.13378 -1.2598
rclavicle 1.55052e-014 -2.38542e-014
rhumerus -54.7419 17.77 -93.9155
rradius 53.6452
rwrist -7.011
rhand -20.2873 -18.0142
rfingers 7.12502
rthumb 6.06245 -47.9075
lclavicle 1.55052e-014 -2.38542e-014
lhumerus -45.2379 -21.1329 80.4257
lradius 45.0239
lwrist -7.28485
lhand 7.56099 5.6079
lfingers 7.12502
lthumb 32.8095 32.6481
rfemur -12.8695 5.89991 16.0112
rtibia 60.0056
rfoot -7.62892 22.3841
rtoes -18.2909
lfemur -25.4551 3.12652 -17.2554
ltibia 45.066
lfoot -28.7099 -12.1751
ltoes 8.48353
264
root -15.8169 17.327 -22.0059 -27.8524 86.5237 -34.5781
lowerback 18.7283 2.37835 -5.14644
upperback 6.61847 2.52089 -2.07811
thorax -3.44707 1.40034 0.160729
lowerneck -0.321213 -1.61668 7.79495
upperneck -9.35575 -1.78789 0.338987
head -3.039 -1.0995 -1.19794
rclavicle 3.73715e-014 -3.73715e-014
rhumerus -54.9352 17.5743 -94.1327
rradius 53.342
rwrist -6.97125
rhand -19.5001 -17.9373
rfingers 7.12502
rthumb 6.82242 -47.8074
lclavicle 3.73715e-014 -3.73715e-014
lhumerus -43.7575 -20.5887 79.4283
lradius 45.2648
lwrist -7.81759
lhand 6.63456 5.50081
lfingers 7.12502
lthumb 31.9278 32.7212
rfemur -14.2894 5.59844 15.7638
rtibia 61.1877
rfoot -8.55558 22.9561
rtoes -18.5821
lfemur -24.8907 3.16248 -17.3596
ltibia 44.9784
lfoot -29.1428 -12.3972
ltoes 8.68373
265
root -15.6673 17.3276 -22.0026 -29.1187 86.7421 -35.886
lowerback 18.8235 2.17579 -5.18452
upperback 6.58044 2.239 -2.14796
thorax -3.5238 1.26412 0.164665
lowerneck -0.289771 -1.57267 7.7126
upperneck -9.30099 -1.72328 0.435142
head -3.02007 -1.06662 -1.15327
rclavicle 7.95139e-015 1.82882e-014
rhumerus -55.2001 17.4455 -94.3545
rradius 53.0448
rwrist -6.90024
rhand -18.7309 -17.8699
rfingers 7.12502
rthumb 7.56489 -47.7146
lclavicle 7.95139e-015 1.82882e-014
lhumerus -42.3443 -19.9423 78.475
lradius 45.6275
lwrist -8.19507
lhand 5.41125 5.37311
lfingers 7.12502
lthumb 30.7622 32.8196
rfemur -15.6691 5.29542 15.6005
rtibia 62.1079
rfoot -9.48663 23.4137
rtoes -18.8742
lfemur -24.3023 3.1322 -17.4051
ltibia 44.8133
lfoot -29.5178 -12.6393
ltoes 8.83752
